<?xml version="1.0" standalone="no"?>
<!DOCTYPE svg PUBLIC "-//W3C//DTD SVG 20010904//EN"
 "http://www.w3.org/TR/2001/REC-SVG-20010904/DTD/svg10.dtd">
<svg version="1.0" xmlns="http://www.w3.org/2000/svg"
 width="16.000000pt" height="16.000000pt" viewBox="0 0 16.000000 16.000000"
 preserveAspectRatio="xMidYMid meet">
<metadata>
Created by potrace 1.11, written by Peter Selinger 2001-2013
</metadata>
<g transform="translate(0.000000,16.000000) scale(0.006250,-0.006250)"
fill="#000000" stroke="none">
<path d="M1140 2394 c-25 -14 -48 -31 -52 -37 -3 -7 -18 -25 -32 -42 -14 -16
-26 -33 -26 -37 0 -4 -21 -10 -47 -14 -115 -16 -223 -54 -267 -93 -35 -32
-112 -149 -141 -216 -46 -104 -60 -190 -60 -360 -1 -88 -5 -179 -9 -202 -7
-34 -4 -55 15 -108 22 -64 33 -77 42 -52 3 7 6 5 6 -6 1 -11 7 -17 18 -15 13
2 20 -10 31 -57 22 -97 25 -122 13 -129 -19 -12 -12 -59 18 -121 16 -33 32
-80 36 -105 10 -65 34 -133 51 -146 12 -10 10 -16 -18 -39 -27 -23 -30 -30
-20 -46 19 -30 15 -49 -12 -49 -38 0 -41 -18 -4 -22 31 -3 34 -6 63 -90 42
-121 62 -138 71 -62 3 21 7 40 9 42 13 13 63 -16 128 -73 41 -36 81 -65 89
-65 8 0 19 -5 24 -10 26 -26 319 -9 349 21 5 5 15 9 23 9 7 0 39 27 69 60 31
33 61 60 67 59 23 -3 37 1 32 10 -3 4 1 17 9 27 12 15 16 16 23 6 7 -11 14 -7
31 14 12 15 24 25 26 22 7 -7 -5 -38 -15 -38 -4 0 -8 -42 -9 -93 0 -50 -2
-101 -4 -112 -1 -15 5 -21 25 -23 23 -3 27 1 36 40 5 24 13 51 17 61 6 13 2
20 -12 23 -17 5 -18 10 -9 59 10 52 10 53 33 38 21 -14 21 -17 7 -38 -14 -21
-13 -24 12 -44 15 -12 31 -21 37 -21 17 0 -2 112 -22 135 -10 11 -17 30 -15
42 2 13 -6 34 -21 51 -14 17 -25 33 -25 37 0 3 14 18 30 32 46 39 54 60 51
151 -2 68 2 92 20 128 12 25 19 54 16 66 -3 12 11 72 32 135 l39 114 20 -25
20 -26 24 25 c24 24 40 22 51 -5 3 -8 6 2 6 22 1 20 -3 39 -7 42 -5 3 -7 40
-5 83 8 188 6 251 -12 323 -10 41 -24 88 -32 103 -8 15 -11 32 -7 38 3 6 -15
54 -41 107 -115 232 -105 219 -204 286 -36 25 -84 59 -106 76 -22 16 -51 35
-65 42 -14 7 -31 21 -38 30 -7 10 -19 18 -25 18 -7 0 -4 -7 6 -14 16 -13 16
-14 -7 -18 -14 -3 -23 -2 -21 3 10 15 -164 59 -233 59 -48 0 -100 -19 -121
-43 -21 -27 -33 -20 -15 9 27 40 80 61 164 63 103 3 102 11 -1 11 -72 0 -91
-4 -129 -26z m260 -55 c42 -14 47 -18 20 -14 -19 2 -80 7 -135 10 -77 5 -97 4
-85 -5 13 -10 12 -11 -5 -7 -13 2 -34 -7 -55 -24 -45 -38 -52 -28 -11 15 54
56 153 64 271 25z m-175 -39 c-28 -12 -47 -12 -40 0 3 6 18 10 33 9 24 0 25
-1 7 -9z m145 -135 c-7 -8 -17 -15 -22 -15 -6 0 -5 7 2 15 7 8 17 15 22 15 6
0 5 -7 -2 -15z m50 -49 c-4 -4 -16 -4 -26 2 -16 9 -14 10 8 9 15 -1 23 -6 18
-11z m-135 -23 c33 -9 97 -33 142 -55 44 -21 87 -38 95 -38 7 0 48 -20 89 -44
78 -46 169 -135 169 -165 0 -10 3 -21 7 -25 10 -9 3 -98 -8 -112 -5 -6 -7 -13
-4 -15 2 -3 5 -40 6 -84 1 -44 7 -116 13 -160 15 -95 15 -191 1 -188 -14 2
-19 -94 -5 -102 7 -4 8 -11 1 -18 -10 -14 -19 -142 -9 -152 12 -13 -24 -119
-59 -168 -39 -56 -140 -157 -158 -157 -5 0 -34 -23 -64 -51 -86 -79 -115 -90
-241 -91 -96 -1 -112 2 -161 25 -30 15 -63 39 -74 53 -33 43 -80 87 -102 95
-22 8 -133 114 -133 126 0 7 -4 13 -9 13 -5 0 -13 10 -17 23 -4 12 -10 24 -13
27 -4 3 -19 34 -33 70 -26 64 -26 69 -24 265 2 155 8 224 24 305 12 58 24 146
28 195 5 63 14 105 31 140 38 79 85 152 118 179 17 14 24 26 17 26 -7 0 -20
-6 -27 -14 -14 -13 -65 -11 -65 4 0 4 7 13 15 20 8 7 15 19 15 27 0 21 50 63
75 63 12 0 30 -9 41 -21 15 -16 20 -18 29 -7 6 7 19 18 30 24 27 15 188 7 260
-13z m188 0 c-7 -2 -19 -2 -25 0 -7 3 -2 5 12 5 14 0 19 -2 13 -5z m61 -19 c9
-3 13 -10 10 -15 -6 -10 -45 -12 -69 -3 -13 5 -14 8 -3 15 15 10 40 11 62 3z
m-884 -1106 c-1 -28 -2 -30 -11 -15 -6 10 -8 25 -5 33 9 24 16 16 16 -18z"/>
<path d="M965 1546 c-29 -21 -12 -30 63 -33 49 -3 72 1 86 12 11 8 18 17 15
19 -2 2 -36 6 -74 10 -54 5 -75 3 -90 -8z"/>
<path d="M1438 1538 c-21 -6 -38 -16 -38 -23 0 -18 76 -29 135 -21 56 9 60 31
6 40 -22 3 -45 8 -53 10 -7 2 -30 -1 -50 -6z"/>
<path d="M1611 1501 c-19 -12 -5 -31 24 -31 13 0 27 -4 30 -10 10 -16 35 -12
29 5 -4 11 -58 46 -68 45 -1 0 -7 -4 -15 -9z"/>
<path d="M1050 1479 c0 -5 9 -9 19 -9 11 0 28 -3 38 -7 10 -3 15 -3 12 1 -11
12 -69 25 -69 15z"/>
<path d="M904 1445 c-10 -8 -14 -15 -8 -15 6 0 17 7 24 15 16 19 9 19 -16 0z"/>
<path d="M981 1443 c-59 -15 -81 -28 -81 -49 0 -19 13 -17 44 7 23 18 27 18
32 5 6 -16 54 -23 54 -8 0 5 11 14 24 21 19 10 28 11 47 1 22 -11 23 -11 9 4
-27 28 -71 34 -129 19z"/>
<path d="M1430 1450 c-12 -8 -11 -10 7 -10 12 0 25 5 28 10 8 13 -15 13 -35 0z"/>
<path d="M1594 1403 c14 -14 30 -23 34 -19 3 4 -4 16 -18 26 -37 29 -47 24
-16 -7z"/>
<path d="M1435 1412 c-33 -7 -38 -19 -6 -14 23 3 30 0 36 -17 7 -23 53 -29 72
-10 8 8 17 5 33 -11 23 -23 45 -23 45 1 0 36 -108 67 -180 51z"/>
<path d="M1140 1074 c-28 -15 -29 -15 22 -18 21 -2 46 -10 56 -19 32 -29 77
-32 102 -7 15 15 29 20 44 16 31 -8 38 2 18 25 -22 25 -38 24 -64 -6 -12 -14
-31 -25 -43 -25 -12 0 -32 11 -45 25 -26 28 -52 30 -90 9z"/>
<path d="M1162 984 c-12 -8 -22 -12 -22 -7 0 4 -12 -5 -26 -22 -23 -27 -95
-51 -80 -26 4 6 -8 9 -32 8 -30 -1 -41 -6 -50 -25 -20 -44 18 -82 49 -49 9 9
37 12 98 9 113 -5 137 4 136 52 -1 31 -27 76 -44 76 -4 0 -17 -7 -29 -16z"/>
<path d="M1290 964 c0 -39 26 -81 57 -89 15 -4 55 -9 88 -11 33 -2 75 -4 94
-6 44 -4 49 13 15 46 -19 17 -32 22 -40 16 -20 -17 -72 0 -78 25 -6 24 -23 31
-98 40 -35 5 -38 3 -38 -21z"/>
<path d="M1368 2403 c7 -3 16 -2 19 1 4 3 -2 6 -13 5 -11 0 -14 -3 -6 -6z"/>
<path d="M1439 2369 c18 -11 35 -18 38 -15 5 5 -50 36 -64 36 -4 0 7 -9 26
-21z"/>
<path d="M647 432 c-10 -10 -17 -27 -16 -38 0 -14 2 -15 6 -4 3 8 12 23 21 33
21 23 10 32 -11 9z"/>
<path d="M644 313 c-19 -43 -18 -77 0 -70 11 5 17 -8 23 -51 4 -31 7 -64 6
-72 -12 -85 -11 -120 3 -120 9 0 14 11 14 30 0 17 5 30 10 30 6 0 10 -5 10
-11 0 -5 6 -7 13 -3 9 5 9 4 0 -6 -6 -7 -9 -19 -6 -26 7 -19 127 -20 120 -1
-2 6 -11 11 -21 9 -9 -2 -16 4 -16 11 0 8 -7 18 -16 21 -23 9 -14 59 14 71 23
10 30 25 12 25 -6 0 -22 11 -34 24 -13 12 -31 26 -40 29 -21 8 -22 73 -1 81
38 14 -2 60 -54 61 -18 1 -27 -7 -37 -32z m19 -13 c-3 -11 -7 -20 -9 -20 -2 0
-4 9 -4 20 0 11 4 20 9 20 5 0 7 -9 4 -20z"/>
<path d="M1811 284 c-1 -13 -13 -25 -33 -35 -18 -8 -35 -23 -37 -34 -5 -31
-21 -45 -52 -45 -15 0 -32 -7 -37 -16 -5 -9 -15 -14 -23 -12 -36 13 -71 -50
-36 -66 6 -3 3 -4 -9 -1 -16 4 -24 -3 -36 -29 -9 -19 -14 -37 -11 -40 4 -3 26
-6 51 -6 44 0 44 0 39 30 -5 23 -3 28 8 24 8 -3 17 -14 20 -25 8 -24 20 -24
52 1 33 26 47 25 71 -4 16 -21 27 -25 75 -25 l57 0 -15 27 c-18 32 -51 72 -60
72 -4 0 -4 -14 0 -30 4 -17 2 -30 -3 -30 -15 0 -30 53 -21 75 4 11 8 40 8 65
l1 45 31 -55 c40 -74 80 -130 91 -130 5 0 8 15 6 32 -2 20 2 33 9 33 22 0 26
15 9 40 -9 14 -22 25 -29 25 -7 0 -24 13 -38 30 -15 16 -33 30 -40 32 -7 2
-21 19 -30 38 -13 27 -18 30 -18 14z m95 -120 c26 -27 32 -57 11 -48 -14 5
-51 74 -40 74 3 0 16 -11 29 -26z"/>
<path d="M560 260 c0 -5 5 -10 10 -10 6 0 10 5 10 10 0 6 -4 10 -10 10 -5 0
-10 -4 -10 -10z"/>
<path d="M427 253 c-12 -12 -7 -33 8 -40 15 -5 44 21 45 40 0 9 -44 9 -53 0z"/>
<path d="M1966 234 c-23 -22 -20 -37 5 -29 12 4 36 7 55 7 43 0 44 13 3 27
-41 14 -45 14 -63 -5z"/>
<path d="M820 213 c0 -15 5 -35 10 -43 7 -11 10 -6 10 22 0 20 -4 40 -10 43
-6 4 -10 -6 -10 -22z"/>
<path d="M610 198 c0 -44 -15 -56 -40 -33 -21 19 -47 14 -56 -10 -9 -22 2 -30
19 -16 20 16 45 4 64 -32 13 -26 17 -28 25 -14 13 23 13 101 0 123 -10 16 -11
14 -12 -18z"/>
<path d="M2050 175 c0 -12 13 -31 30 -44 36 -26 76 -25 74 2 -2 13 3 16 17 12
10 -4 19 -3 19 2 0 14 -62 41 -102 45 -33 4 -38 1 -38 -17z"/>
<path d="M2530 186 c6 -6 10 -18 10 -28 0 -10 4 -18 10 -18 5 0 8 13 7 29 -1
21 -7 29 -19 28 -12 -1 -14 -5 -8 -11z"/>
<path d="M2335 180 c-3 -5 -1 -10 4 -10 6 0 11 5 11 10 0 6 -2 10 -4 10 -3 0
-8 -4 -11 -10z"/>
<path d="M2365 179 c-4 -5 5 -9 19 -9 14 0 29 -6 33 -12 4 -7 14 -13 21 -14 6
-1 19 -2 27 -2 8 -1 15 -9 15 -17 0 -7 8 -18 17 -24 26 -14 8 -25 -45 -26 -26
-1 -45 -5 -42 -11 3 -5 12 -8 20 -7 8 2 29 4 47 4 25 2 34 8 41 28 11 31 5 51
-14 51 -8 0 -14 5 -14 11 0 5 -4 8 -9 4 -5 -3 -12 -1 -16 4 -3 6 -13 7 -22 4
-11 -4 -14 -3 -9 5 4 7 4 13 -1 13 -47 7 -63 6 -68 -2z"/>
<path d="M223 141 c-18 -9 -33 -19 -33 -24 0 -4 18 2 40 13 22 11 40 23 40 25
0 7 -12 4 -47 -14z"/>
<path d="M2370 134 c0 -8 5 -12 10 -9 6 3 10 10 10 16 0 5 -4 9 -10 9 -5 0
-10 -7 -10 -16z"/>
<path d="M326 132 c-13 -13 22 -42 50 -42 38 0 61 22 41 38 -13 11 -82 14 -91
4z"/>
<path d="M640 111 c0 -17 5 -33 10 -36 6 -4 10 8 10 29 0 20 -4 36 -10 36 -5
0 -10 -13 -10 -29z"/>
<path d="M2206 121 c5 -5 25 -12 44 -16 l35 -6 -29 15 c-31 17 -66 22 -50 7z"/>
<path d="M2395 120 c-3 -5 -1 -10 4 -10 6 0 11 5 11 10 0 6 -2 10 -4 10 -3 0
-8 -4 -11 -10z"/>
<path d="M13 93 c9 -2 25 -2 35 0 9 3 1 5 -18 5 -19 0 -27 -2 -17 -5z"/>
<path d="M532 67 c-27 -29 -29 -67 -4 -67 27 0 64 38 60 63 -4 30 -30 32 -56
4z"/>
<path d="M2540 81 c0 -6 5 -13 10 -16 6 -3 10 1 10 9 0 9 -4 16 -10 16 -5 0
-10 -4 -10 -9z"/>
<path d="M188 63 c-22 -6 -24 -43 -3 -43 22 0 75 29 75 40 0 10 -40 12 -72 3z"/>
<path d="M2065 50 c-3 -6 -3 -19 0 -30 5 -16 15 -20 52 -20 26 0 44 2 42 4 -8
8 -80 56 -84 56 -2 0 -7 -5 -10 -10z"/>
<path d="M1973 33 c-13 -2 -23 -11 -23 -19 0 -20 56 -19 64 2 10 27 10 27 -41
17z"/>
<path d="M2213 23 c-32 -11 -8 -23 44 -23 31 0 54 2 52 4 -8 9 -84 23 -96 19z"/>
<path d="M365 10 c3 -5 13 -10 21 -10 8 0 14 5 14 10 0 6 -9 10 -21 10 -11 0
-17 -4 -14 -10z"/>
<path d="M2510 10 c0 -5 12 -10 28 -10 21 0 24 2 12 10 -20 13 -40 13 -40 0z"/>
</g>
</svg>
