<svg id="Layer_1" data-name="Layer 1" xmlns="http://www.w3.org/2000/svg" viewBox="0 0 612 305"><defs><style>.cls-1{fill:#a61e22;}</style></defs><title>ryanGosling</title><path class="cls-1" d="M552.22,97.9c-.57-.43-.79-.71-1.06-.78A23.82,23.82,0,0,1,544.52,94a31.07,31.07,0,0,0-4.68-2c-2.52-1-5.06-2-7.58-3-5.27-2.13-10.85-3.14-16.39-4.12-4.85-.85-9.8-1.2-14.72-1.59a139,139,0,0,0-21.81.36A32.91,32.91,0,0,0,472.48,85c-2.3.69-4.59,1.4-6.82,2.28-1.88.74-3.71,1.6-5.53,2.48-4.1,2-8.19,4-12.25,6A36.81,36.81,0,0,0,444.16,98c-3,2-6.1,3.87-8.94,6.08-2.33,1.82-4.33,4.08-6.5,6.12-2.82,2.64-5.61,5.3-8.51,7.85-2.47,2.17-5.07,4.19-7.62,6.27-.9.74-4.89.77-5.81,0a1.22,1.22,0,0,1-.38-.41c-.79-1.83-2.11-3.51-1.88-5.66a4,4,0,0,1,.74-2.06,6.77,6.77,0,0,1,2.36-1.85c4.2-1.77,7.35-4.89,10.55-8,3.56-3.41,6.88-7,10.33-10.55a12.92,12.92,0,0,1,5.6-3.48,4.42,4.42,0,0,0,2.48-1.62,6.72,6.72,0,0,1,3.73-2.13,5.31,5.31,0,0,0,1.27-.35c2-1.22,3.91-2.51,5.9-3.72a7.08,7.08,0,0,1,1.91-.82,11.42,11.42,0,0,0,4.27-2c2.15-1.67,4.69-2.47,7.21-3.35a12.48,12.48,0,0,0,2.2-1.08,16.75,16.75,0,0,1,5.23-2.14c1.61-.32,3.16-.94,4.78-1.17a80.44,80.44,0,0,1,9.43-1,71.9,71.9,0,0,1,7.46.7,3.11,3.11,0,0,0,2-.33,5,5,0,0,1,2.52-.65,1.49,1.49,0,0,1,1.94,1.27A9.74,9.74,0,0,1,503,72.81c2.87.44,5.77.68,8.65,1.11,2.55.38,5.08.88,7.62,1.37a9.67,9.67,0,0,1,1.4.54,4.47,4.47,0,0,0,1.59.5,9.17,9.17,0,0,1,5.57,1.29,2.69,2.69,0,0,0,1.49.1c3.07-.25,5.72,1.06,8.22,2.48A20.9,20.9,0,0,0,541.47,82a51.89,51.89,0,0,1,8.32,3.65c3.65,1.92,7.11,4.44,11.49,4.69a3.12,3.12,0,0,1,2.41,1.35,5.72,5.72,0,0,0,1.5,1.1c.83-.69.45-1.23.2-1.71q-1.89-3.52-3.84-7c-1.59-2.86-3.56-5.48-5.07-8.4a62.73,62.73,0,0,0-4.68-6.9c-.84-1.19-1.8-2.3-2.59-3.52a4.06,4.06,0,0,1,.9-5.14c.34-.28.82-.47,1-.83,1.21-2.18,3.29-1.71,5.05-1.44a4.4,4.4,0,0,1,3.48,2.91,19.21,19.21,0,0,0,1.23,2.13c1,1.95,2.05,3.91,3.08,5.86a7.57,7.57,0,0,0,.57,1,42.28,42.28,0,0,1,3.66,6.58,17,17,0,0,0,1.3,2.1c.89,1.3,2,2.45,2.36,4.07a1.36,1.36,0,0,0,.28.49c2.16,2.88,4.26,5.82,6.51,8.63a8.17,8.17,0,0,1,1.48,6.08c-.09,1.14,0,2.37-1,3.38a5.77,5.77,0,0,1-4.15,1.54,20,20,0,0,0-4.68.37,82.89,82.89,0,0,0-13.68,5c-3.15,1.61-6.46,2.91-9.7,4.36a9.84,9.84,0,0,0-1.48.84c-3.59,2.44-7.93,1.6-9.67-2.77-.44-1.11-1.09-2.17-.63-3.46a5.12,5.12,0,0,1,3.33-3.15c2.2-.79,4.43-1.48,6.6-2.33,1.76-.68,3.47-1.51,5.17-2.32A17.14,17.14,0,0,0,552.22,97.9Z"/><path class="cls-1" d="M122,128.84c0,1.73.07,3.15.11,4.57q.1,3.41.21,6.81a7.28,7.28,0,0,0,0,.95c.61,3.75,1.22,7.5,1.87,11.24a25.61,25.61,0,0,1-.16,7.14c-.17,1.63-2.09,3.1-3.75,3.29a2.2,2.2,0,0,1-2.27-1,6,6,0,0,1-1.35-4.42,16.38,16.38,0,0,0-.37-5.44,104.55,104.55,0,0,1-1.91-15.82c-.05-2.32-.52-4.63-.68-6.95-.15-2.13-.11-4.28-.22-6.42-.06-1.13-.29-2.24-.35-3.37-.09-1.76-.09-3.53-.16-5.3-.09-2-.21-4-.33-6-.17-2.89-.24-5.8-.55-8.68s-.8-5.77-1.3-8.64a9.19,9.19,0,0,1,2.5-8.21,3.62,3.62,0,0,1,1.53-1,28.83,28.83,0,0,1,7.2-1.53c1.8,0,3.61,0,5.41,0,.89,0,1.77,0,2.65,0A25.16,25.16,0,0,1,140,81.31a3.72,3.72,0,0,1,1,.59c1.06.8,2.09,1.63,3.15,2.44s1.95,1.39,2.16,2.74c.07.4.46.75.68,1.13.75,1.32,1.47,2.66,2.22,4,1.65,2.87,1,5.8,0,8.59a51.93,51.93,0,0,1-3.45,7.18c-1.23,2.21-2.68,4.29-4.1,6.38a4.18,4.18,0,0,1-1.4,1.22c-3,1.7-6.08,3.33-9.1,5a13.25,13.25,0,0,0-1.84,1.57,16.06,16.06,0,0,0,1.3,1.3c3.29,2.58,6.61,5.12,9.89,7.72A20.14,20.14,0,0,0,149,135.6a9.77,9.77,0,0,1,3.13,1.68c1.37.9,2.62,2,4,2.86a5.64,5.64,0,0,1,2.34,5.49c-.34,2.44-2.2,3.44-3.87,4.55a2.7,2.7,0,0,1-3.81-1.28c-.77-1.8-2.47-2.5-3.87-3.51a20.23,20.23,0,0,0-3.73-1.87,31.67,31.67,0,0,1-8.18-5.1,89.36,89.36,0,0,0-11.35-8.89A12.55,12.55,0,0,0,122,128.84Zm-.4-10.22c1.51-.77,2.82-1.35,4.05-2.08,2.56-1.51,5-3.18,7.62-4.6a14.07,14.07,0,0,0,4.81-4.45,28.2,28.2,0,0,0,3.76-7.4c.5-1.51,1-2.87.42-4.36a19.39,19.39,0,0,0-1.42-2.66,7.9,7.9,0,0,0-5.16-3.6,16.52,16.52,0,0,0-6.13-.67,12.32,12.32,0,0,1-3.58.07c-1.82-.32-3.5.24-5.23.46-1.27.16-1.46.54-1.32,1.8.25,2.26.37,4.53.77,6.77.64,3.64-.19,7.31.43,10.94.33,1.93.33,3.91.51,5.86C121.29,115.91,121.47,117.12,121.65,118.61Z"/><path class="cls-1" d="M105.38,231.13c-1.94,0-2.72,1.45-3.83,2.31a24.63,24.63,0,0,1-6.47,3.88,3,3,0,0,1-4.18-2.61c-.07-.75,0-1.52-.12-2.27-.25-2.08,1-3.3,2.45-4.4,2.52-1.91,5.06-3.81,7.58-5.71a20.73,20.73,0,0,0,1.66-1.26,14.5,14.5,0,0,0,2.23-2.29c1.62-2.37,3.65-2.92,6.16-1.51s2.68,2.33,2.51,5.22a44.7,44.7,0,0,0,.46,6.41c.09,1,.24,2,.33,3a13.4,13.4,0,0,0,0,1.71c.71,3.23.55,6.54,1,9.78a13.9,13.9,0,0,0,1,2.62,18.67,18.67,0,0,1,1,3c.21,1.17.08,2.4.29,3.57a3.56,3.56,0,0,1-.63,2.87c-1.23,1.69-2.43,3.44-4.73,3.83-.25,0-.52.24-.73.18-1.66-.52-2.49.54-3.48,1.59a14.75,14.75,0,0,1-7.91,4.61,11.8,11.8,0,0,1-6.3-.48c-1.07-.37-2.17-.67-3.24-1a16,16,0,0,1-1.75-.71,7.84,7.84,0,0,0-1.32-.75c-2.38-.57-4.1-2.15-5.89-3.66a4.76,4.76,0,0,0-1.21-.91c-1.63-.63-2.42-2.13-3.61-3.2-1.64-1.48-2.38-3.32-3.36-5.13-.72-1.33-1.64-2.51-1.75-4.14,0-.71-.67-1.37-.86-2.09-.53-2-1-4-1.45-6.06-.21-.92-.35-1.86-.54-2.78-.58-2.85-1.2-5.7-1.76-8.55a23.42,23.42,0,0,1,.66-10.7c.77-2.86,1.49-5.74,2.43-8.54a23.26,23.26,0,0,1,4.31-7.52,27.08,27.08,0,0,1,4.19-3.47,5.5,5.5,0,0,1,5.05-.88A71,71,0,0,0,92.66,197c1.94.26,4.38,1.78,4.42,4a5.09,5.09,0,0,1-.4,2.55,7.65,7.65,0,0,1-4.14,3.67,4.09,4.09,0,0,1-2.2-.15c-2.19-.62-4.34-1.39-6.53-2a7.24,7.24,0,0,0-2.62-.26,2.6,2.6,0,0,0-1.78.87,19.55,19.55,0,0,0-3.43,8.7c-.09,1-.41,2-.54,3a31,31,0,0,0,.51,11.29c1,3.93,1.65,7.93,2.83,11.79,1.3,4.24,3.5,8,7.41,10.47a41.15,41.15,0,0,0,5.33,2.48c1.27.56,2.58,1,3.88,1.54,2.59,1,5,.82,7-1.29.52-.55,1-1.13,1.53-1.69a5.81,5.81,0,0,0,1.76-5.36,1.57,1.57,0,0,1,.07-1.11c1.36-1.69.77-3.64.72-5.47-.07-2.47-.38-4.93-.63-7.39A8.93,8.93,0,0,0,105.38,231.13Z"/><path class="cls-1" d="M288.1,65.32c1.48-.82,2.75-1.46,3.94-2.22a2,2,0,0,1,2-.21,6.47,6.47,0,0,1,3.38,2.28,3.76,3.76,0,0,0,1.14,1,50.51,50.51,0,0,1,10.1,7.68c1.86,1.87,4,3.59,5.4,5.76,1.77,2.71,4.56,4.58,5.92,7.58a3.64,3.64,0,0,0,1.39,1.23A11.47,11.47,0,0,1,324,91.31c1.29,1.68,2.06,3.77,3.9,5a3.68,3.68,0,0,1,.77,1.06c.41.62.8,1.24,1.19,1.86l.43-.07a12.84,12.84,0,0,0,.19-1.73c-.07-3.61-.21-7.22-.27-10.82,0-2.46,0-4.92,0-7.39,0-.25,0-.51,0-.76-.32-4.22-.64-8.44-1-12.66-.2-2.45-.38-4.91-.67-7.35a1.77,1.77,0,0,1,1.05-2c1.05-.57,2-1.51,3.12-1.71a5.2,5.2,0,0,1,4.24.93,15.31,15.31,0,0,1,1.41,1.45c-.16,2.32-.31,4.59-.46,6.86a1.55,1.55,0,0,0,0,.75c1.44,2.7.47,5.6.71,8.4.06.69,0,1.38.12,2.06a151.71,151.71,0,0,1,.74,16c.07,3.66-.21,7.33-.16,11,.06,4-1.47,7.42-3.23,10.79-1,2-2.93,2.94-5,3.62a1.77,1.77,0,0,1-1.4-.24,8,8,0,0,1-2.64-3.15c-1.46-3.16-3.06-6.26-4.72-9.32a19.13,19.13,0,0,0-2.33-3c-2.56-3-5.19-6-7.71-9.11A81.51,81.51,0,0,0,305,83.45c-1.06-1-1.93-2.16-3-3.14a17.44,17.44,0,0,0-2.61-1.59c.14,1.61.15,2.73.35,3.82a21.67,21.67,0,0,1,.25,7.37,25.45,25.45,0,0,0,.26,6.77c.23,2.05.06,4.15.11,6.22a11,11,0,0,0,.25,3.36c.73,2,.29,4,0,6a9.2,9.2,0,0,1-.72,2.55,6.66,6.66,0,0,1-1.33,1.78,7.66,7.66,0,0,1-1.28.8,2.71,2.71,0,0,1-4.22-1c-.57-1-1-2-.42-3.21.24-.48-.06-1.23-.11-1.85-.15-2-.77-3.95-.37-6a13.52,13.52,0,0,0-.32-3c-.3-5.88-.58-11.76-.86-17.64a6.19,6.19,0,0,0-.1-.94c-.59-2.85-1-5.76-1.84-8.52-.55-1.77-.77-3.56-1.19-5.32A10.69,10.69,0,0,1,288.1,65.32Z"/><path class="cls-1" d="M337.44,202.61a16.19,16.19,0,0,0,.57-2.27c.21-2.33.42-4.67.48-7,.08-2.78,0-5.56,0-8.34-.11-4.81-.27-9.61-.4-14.41,0-1.33,0-2.65,0-4a5.9,5.9,0,0,0-1.53-4c-1.17-1.27-.92-2.82-1-4.3a1.47,1.47,0,0,1,.7-1,30.12,30.12,0,0,1,2.71-1.34c.17-.08.43,0,.55-.14,1.41-1.41,3.1-.59,4.67-.59.41,0,.83.42,1.21.69a9.69,9.69,0,0,1,1,.87c.22.21.56.41.62.66a36.75,36.75,0,0,1,.73,4.1c.14,1.38.09,2.78.11,4.17,0,3.09-.1,6.19.13,9.27.3,4.15.35,8.29.4,12.44a91.49,91.49,0,0,1-.2,9.86,61,61,0,0,1-1.77,11.43,7,7,0,0,1-.8,1.49c-.16.27-.53.5-.54.76-.08,2.36-2.34,3-3.54,4.46a2.29,2.29,0,0,1-1.72.4,4,4,0,0,1-1.76-.68c-3.62-2.38-7-5-9.29-8.79-.44-.76-1.08-1.4-1.6-2.12-1.85-2.56-3.74-5.1-5.51-7.72-1.21-1.78-2.16-3.73-3.39-5.49-2.37-3.36-4.84-6.65-7.32-9.94a10.57,10.57,0,0,0-1.92-1.48c0,1.59,0,2.83.08,4.05.35,3.4.92,6.78,1.14,10.19A30.64,30.64,0,0,1,310,202a9.11,9.11,0,0,1-4.34,6.18,1.82,1.82,0,0,1-2.28-.15c-1.82-1.54-3-3.27-2.57-5.92a27.87,27.87,0,0,0-.75-12.22,11.74,11.74,0,0,1,0-2.25c-.34-4.49-.65-9-1.12-13.45a16.15,16.15,0,0,0-1.15-5,5.81,5.81,0,0,1,1.08-6.26,5.93,5.93,0,0,1,5-1.78,5.08,5.08,0,0,1,3.79,2.21c1.4,1.86,3.08,3.52,4.58,5.32,2.06,2.48,4,5,6.09,7.52.64.79,1.4,1.48,2,2.3s1,1.75,1.52,2.59,1.12,1.36,1.59,2.1c1.59,2.51,3.12,5.06,4.7,7.58.37.59.81,1.12,1.23,1.68a21.4,21.4,0,0,1,1.66,2.3,15.16,15.16,0,0,0,2.85,4,35.11,35.11,0,0,1,2.54,3A8.44,8.44,0,0,0,337.44,202.61Z"/><path class="cls-1" d="M391.89,183c-1.74-.29-3,.67-4.44,1.15-2,.69-4,1.53-6.09,2.12a11,11,0,0,1-2.6-.13c-1.21,0-1.42-1-1.76-1.72-.57-1.26-1.37-2.58-1.37-3.87a3.84,3.84,0,0,1,1.85-3.31,15.17,15.17,0,0,1,2.6-1.12c2.82-.95,5.62-1.94,8.48-2.74,2.19-.61,4.45-1,6.68-1.44a2.59,2.59,0,0,1,1.12-.12c1.83.5,3.67,1,5.45,1.63a2.32,2.32,0,0,1,1.42,2.81,10.31,10.31,0,0,1-1.36,3.28,9.63,9.63,0,0,0-1.76,4.69c-.18,2.08-.78,4.13-.21,6.2a67.15,67.15,0,0,1,1.62,10.67,8.88,8.88,0,0,0,1.14,3c.58,1.11,1.35,2.13,2,3.21a1.54,1.54,0,0,1,.24,1.07,6.26,6.26,0,0,1-2.47,3.72,21.65,21.65,0,0,1-2.52,1.26c-1.65.76-3.39-.25-3.9-2.44-.43-1.84-.62-3.73-1-5.59-.2-1.11-.48-2.2-.8-3.61-.75.39-1.34.66-1.89,1a32.71,32.71,0,0,1-4.39,2.56,66.11,66.11,0,0,1-8.49,2.74,13.61,13.61,0,0,1-13.71-4,68.41,68.41,0,0,1-4.7-5.47,17.5,17.5,0,0,1-1.6-3,33,33,0,0,1-3.19-11.64c-.35-3.55.62-7,1.41-10.44.64-2.75,2.2-5.07,3.22-7.64a24,24,0,0,1,4.32-6.87,9.06,9.06,0,0,1,1-1.07c2.72-2.25,5.51-4.43,8.17-6.75a4.08,4.08,0,0,1,2.89-1.1c2.21,0,3.94,1.07,5.65,2.21a2.5,2.5,0,0,1,.8,3.5,7.87,7.87,0,0,1-5.5,4.52,9.44,9.44,0,0,0-2.88,1.76c-1.44,1-2.83,2.12-4.22,3.21a5.11,5.11,0,0,0-.94.92,25,25,0,0,0-4.61,8.66c-.4,1.52-1.06,3-1.36,4.53A17.83,17.83,0,0,0,365,188a21.68,21.68,0,0,0,5,8.16c2.1,2.38,5,3.11,7.69,1.7a9.52,9.52,0,0,1,2-.54,22.71,22.71,0,0,0,6.65-3.07c1-.67,1-1.82,1.23-2.88a9.64,9.64,0,0,1,.68-2.53,3.78,3.78,0,0,1,1.52-1.56C392,186.18,392.21,185.91,391.89,183Z"/><path class="cls-1" d="M139.61,200.62c2.21.61,4.27,1.17,6.33,1.75a17,17,0,0,1,6,3.51c2.11,1.72,4.27,3.39,6.24,5.27a23.73,23.73,0,0,1,3.9,4.63,62.61,62.61,0,0,1,4,7.74,19.13,19.13,0,0,1,1.52,6.79c.09,1.86-1,3.24-1.54,4.82a27.55,27.55,0,0,1-4.82,7.91,37.22,37.22,0,0,1-7.36,6.2,17.55,17.55,0,0,1-6.58,2.79,6.66,6.66,0,0,1-5.29-.92c-3.76-2.62-7.25-5.53-9.6-9.57l-3.9-6.7a1.27,1.27,0,0,1-.16-.34c-.74-3.33-1.56-6.65-2.17-10a40.33,40.33,0,0,1-.29-5.11,28.86,28.86,0,0,1,1.47-9.13A50.83,50.83,0,0,1,132.29,199c.69-1.23,1.89-1.63,3-2.24a1.74,1.74,0,0,1,1.25.11A4.34,4.34,0,0,1,139.61,200.62Zm-3.94,9.32a29.3,29.3,0,0,0-1.41,10.71,29.94,29.94,0,0,0,4.68,14.82,16.79,16.79,0,0,0,4.82,5,6.8,6.8,0,0,0,3.64,1.34,7.05,7.05,0,0,0,5.59-2.79c1.3-1.71,2.66-3.39,3.83-5.19a7.07,7.07,0,0,0,.86-6.53,24.68,24.68,0,0,0-2.52-4.88,16.87,16.87,0,0,0-3.86-4.63,50.72,50.72,0,0,1-4.68-4.14c-1.58-1.49-3.71-1.85-5.52-2.86a.78.78,0,0,0-.55-.07C138.86,211.29,137.32,210.76,135.66,209.94Z"/><path class="cls-1" d="M271.8,112.48a8.09,8.09,0,0,1-3.62,4.3c-1.94,1.27-3.8,1-4.93-1-1-1.81-1.87-3.73-2.91-5.53-1.22-2.12-2.57-4.18-3.79-6.14-3.22,0-6,1-8.74,1.83-3.8,1.17-7.57,2.44-11.65,2.62a21,21,0,0,1,.64,2.86,15.19,15.19,0,0,1-.11,3c-.34,3-.64,6-1.13,9a16.71,16.71,0,0,1-1.32,3.72,3,3,0,0,1-1,1.06,10.08,10.08,0,0,1-1.34.71c-.91.48-1.74,1.4-2.85.28s-2.07-2.17-1.68-4a30.24,30.24,0,0,0,.6-4.86c.21-4.41.25-8.83.52-13.24.18-3,.61-5.89,1-8.83.41-3.51.8-7,1.3-10.53.43-3,1-6,1.52-8.95a8.77,8.77,0,0,1,1.55-4c1.16-1.52,2.78-1.58,4.39-1.8a1.54,1.54,0,0,1,1,.39c3,2.53,5.94,5.09,8.91,7.64a9.82,9.82,0,0,0,1.29,1.11,12.72,12.72,0,0,1,4.14,4.61,21,21,0,0,0,2,2.53,3.26,3.26,0,0,0,.93.61c.27.15.68.18.84.39.95,1.37,1.84,2.77,2.75,4.16.24.37.49.72.75,1.08.43.6.84,1.24,1.32,1.8.9,1,1.85,2.06,2.79,3.08a9.8,9.8,0,0,1,2.54,4.18,2.65,2.65,0,0,0,.7,1.33C270.23,107.69,270.79,110.21,271.8,112.48ZM239.86,86.41c-.21,1-.33,1.45-.41,1.92-.49,2.92-.89,5.86-1.47,8.77-.36,1.83-.09,2.23,1.7,1.9a34,34,0,0,0,7.79-2.91c1.49-.68,1.54-1.37.37-2.6-.74-.78-1.52-1.52-2.33-2.22C243.77,89.74,242,88.24,239.86,86.41Z"/><path class="cls-1" d="M211.24,228c-1.89,3-4.67,5.2-7.42,7.29a16.79,16.79,0,0,1-5.42,2.54,30.93,30.93,0,0,0-5.33,2.32c-1.59.81-3.48.5-4.15-1.13-.76-1.84-1.62-3.77-.52-5.84a6.5,6.5,0,0,0,.28-1.48,2.52,2.52,0,0,1,4-1.62,2.2,2.2,0,0,0,2.15.16,21.06,21.06,0,0,0,7.66-4.76A37.84,37.84,0,0,0,206.3,221c1.11-1.48,1-2-.77-2.68a14.67,14.67,0,0,0-4-1,65.51,65.51,0,0,1-8.06-1,21.12,21.12,0,0,0-5.28-.33c-2.28.09-4.27-1.08-6.47-1.28-.62-.06-1.24-.16-1.86-.24a5.11,5.11,0,0,1-4.55-3.2A17.52,17.52,0,0,1,174,202c.21-1.43,0-2.93.32-4.33.45-2.2,1.14-4.36,1.75-6.53a2.35,2.35,0,0,1,.45-.83c1.13-1.36,2.23-2.75,3.43-4a5.51,5.51,0,0,1,3.32-1.68c1.23-.19,2.4-.87,3.62-.94,3.62-.21,7.2,0,10.48,1.85,1.14.64,2.58.88,3,2.35a7.23,7.23,0,0,1,.45,2.36,18.39,18.39,0,0,1-.59,2.57c-.39,2-2.14,2.52-3.66,3.21a2.12,2.12,0,0,1-1.45-.23c-1.1-.48-2.13-1.11-3.24-1.58-2.74-1.15-5.53-1.41-8.2.15a3.68,3.68,0,0,0-1.68,1.9c-.56,2.19-1.17,4.42-.63,6.74.43,1.86,1.14,2.58,3.05,2.68,2.77.13,5.54.17,8.31.28.82,0,1.63.24,2.44.33,3.08.34,6.16.64,9.24,1a15.08,15.08,0,0,1,7.67,3.38,17.92,17.92,0,0,1,3.84,3.86c.9,1.31,1,1.71.06,3a7.56,7.56,0,0,0-.87,2.8,23.36,23.36,0,0,1-2.1,5.2A16.42,16.42,0,0,1,211.24,228Z"/><path class="cls-1" d="M206.52,80.69a5.31,5.31,0,0,0,1.49.49c1.53.06,2.1,1.17,2.77,2.25a3.31,3.31,0,0,1,.11,3.2,13.29,13.29,0,0,1-2.49,4.67,32.79,32.79,0,0,0-3,4.4c-2.28,3.5-4.59,7-6.79,10.54a4.13,4.13,0,0,0-.55,2.51A25.76,25.76,0,0,1,198,114c-.27,3.65-.3,7.33-.3,11,0,2.9.13,5.81.33,8.7a11,11,0,0,1-1.36,5.42,5.52,5.52,0,0,1-3.34,3.12,3,3,0,0,1-3.8-1.47,7.43,7.43,0,0,1-.68-3.49c0-3,0-5.92,0-8.88,0-4.29.11-8.59.17-12.88,0-.88.12-1.77,0-2.65a17.09,17.09,0,0,0-.43-2.2c-.4-.1-.54-.2-.63-.16-2.91,1.22-4.67-.66-6.42-2.42a26.66,26.66,0,0,0-6.19-4.89,33.68,33.68,0,0,1-3.86-2.73c-2.44-1.8-4.83-3.67-7.29-5.43-1.91-1.36-2.4-2.82-1.41-4.86a6.31,6.31,0,0,1,.94-1.64c.5-.53,1.16-1.2,1.79-1.24a6,6,0,0,1,4.63,1.11c2.34,1.93,4.94,3.54,7.43,5.29,2.65,1.86,5.28,3.73,7.94,5.56q2,1.39,4.14,2.66c1,.6,1.29.47,2-.6,1.69-2.68,3.36-5.37,5.08-8,.75-1.17,1.58-2.3,2.4-3.42a14.54,14.54,0,0,0,2.74-5.55,3.59,3.59,0,0,1,2-2.36C204.68,81.5,205.56,81.15,206.52,80.69Z"/><path class="cls-1" d="M254.5,216.3a14.93,14.93,0,0,1-1.3,1.68,2.07,2.07,0,0,1-1.27.64c-3.51,0-6.71,1.23-9.84,2.6a42.39,42.39,0,0,1-11,2.64,17.48,17.48,0,0,1-3.92-.2c-1.82-.15-2.6-1.4-2.94-3s-.59-3.34-1-5a63.47,63.47,0,0,1-1.56-10.87c-.08-1.44-.51-2.86-.65-4.29-.39-4-.68-8.07-1.06-12.1-.17-1.83-.37-3.65-.67-5.46a18.32,18.32,0,0,1,.53-6.21c.24-1.35,2.6-2.85,4-2.75a2.33,2.33,0,0,1,.38,0c1.05.26,3.2,3,3,4-.59,2.81.2,5.55.35,8.31.25,4.48.72,9,1.3,13.41.5,3.89,1.22,7.75,1.94,11.61.32,1.69.69,1.7,2.32,1.81,3,.21,5.52-1.11,8.15-2.13,3-1.19,6.06-2.46,9.12-3.59,1.93-.71,4.28.76,5.3,2.45,1.33,2.21,1.05,3.89-.68,5.57A3.74,3.74,0,0,0,254.5,216.3Z"/><path class="cls-1" d="M263.9,166.78a5.2,5.2,0,0,1,4.73-1.95c.49.12,1,.28,1.47.37a3.12,3.12,0,0,1,2.38,2.2,17.7,17.7,0,0,1,.81,4.42q.57,4.11,1.21,8.21.48,3.08,1.06,6.15c.32,1.68.68,3.35,1.06,5,.45,2,1,3.92,1.41,5.89.81,3.51,2.22,6.86,2.56,10.5a4.56,4.56,0,0,1-.72,3.4,9.32,9.32,0,0,0-1,2,6,6,0,0,1-3.45,2.39,3.63,3.63,0,0,1-3.13-2.1,4.55,4.55,0,0,1-.48-1.44c-.28-4-1.85-7.74-2.74-11.62-.71-3.13-1.3-6.3-2-9.44-.26-1.24-.55-2.47-.8-3.72-.52-2.54-1-5.08-1.53-7.62a9.52,9.52,0,0,0-.56-1.8,15.26,15.26,0,0,1-1.13-8.7A11.88,11.88,0,0,1,263.9,166.78Z"/><path d="M547.69,97.12c-.57-.43-.79-.71-1.06-.78A23.82,23.82,0,0,1,540,93.23a31.07,31.07,0,0,0-4.68-2c-2.52-1-5.06-2-7.58-3C522.45,86,516.88,85,511.34,84c-4.85-.85-9.8-1.2-14.72-1.59a139,139,0,0,0-21.81.36,32.91,32.91,0,0,0-6.86,1.38c-2.3.69-4.59,1.4-6.82,2.28-1.88.74-3.71,1.6-5.53,2.48-4.1,2-8.19,4-12.25,6a36.81,36.81,0,0,0-3.72,2.28c-3,2-6.1,3.87-8.94,6.08-2.33,1.82-4.33,4.08-6.5,6.12-2.82,2.64-5.61,5.3-8.51,7.85-2.47,2.17-5.07,4.19-7.62,6.27-.9.74-4.89.77-5.81,0a1.22,1.22,0,0,1-.38-.41c-.79-1.83-2.11-3.51-1.88-5.66a4,4,0,0,1,.74-2.06,6.77,6.77,0,0,1,2.36-1.85c4.2-1.77,7.35-4.89,10.55-8,3.56-3.41,6.88-7,10.33-10.55a12.92,12.92,0,0,1,5.6-3.48A4.42,4.42,0,0,0,432,90a6.72,6.72,0,0,1,3.73-2.13,5.31,5.31,0,0,0,1.27-.35c2-1.22,3.91-2.51,5.9-3.72a7.08,7.08,0,0,1,1.91-.82,11.42,11.42,0,0,0,4.27-2c2.15-1.67,4.69-2.47,7.21-3.35a12.48,12.48,0,0,0,2.2-1.08,16.75,16.75,0,0,1,5.23-2.14c1.61-.32,3.16-.94,4.78-1.17a80.44,80.44,0,0,1,9.43-1,71.9,71.9,0,0,1,7.46.7,3.11,3.11,0,0,0,2-.33,5,5,0,0,1,2.52-.65,1.49,1.49,0,0,1,1.94,1.27A9.74,9.74,0,0,1,498.48,72c2.87.44,5.77.68,8.65,1.11,2.55.38,5.08.88,7.62,1.37a9.67,9.67,0,0,1,1.4.54,4.47,4.47,0,0,0,1.59.5,9.17,9.17,0,0,1,5.57,1.29,2.69,2.69,0,0,0,1.49.1c3.07-.25,5.72,1.06,8.22,2.48a20.9,20.9,0,0,0,3.92,1.82,51.89,51.89,0,0,1,8.32,3.65c3.65,1.92,7.11,4.44,11.49,4.69a3.12,3.12,0,0,1,2.41,1.35,5.72,5.72,0,0,0,1.5,1.1c.83-.69.45-1.23.2-1.71q-1.89-3.52-3.84-7c-1.59-2.86-3.56-5.48-5.07-8.4a62.73,62.73,0,0,0-4.68-6.9c-.84-1.19-1.8-2.3-2.59-3.52a4.06,4.06,0,0,1,.9-5.14c.34-.28.82-.47,1-.83,1.21-2.18,3.29-1.71,5.05-1.44A4.4,4.4,0,0,1,555.13,60a19.21,19.21,0,0,0,1.23,2.13c1,1.95,2.05,3.91,3.08,5.86a7.57,7.57,0,0,0,.57,1,42.28,42.28,0,0,1,3.66,6.58,17,17,0,0,0,1.3,2.1c.89,1.3,2,2.45,2.36,4.07a1.36,1.36,0,0,0,.28.49c2.16,2.88,4.26,5.82,6.51,8.63a8.17,8.17,0,0,1,1.48,6.08c-.09,1.14,0,2.37-1,3.38a5.77,5.77,0,0,1-4.15,1.54,20,20,0,0,0-4.68.37,82.89,82.89,0,0,0-13.68,5c-3.15,1.61-6.46,2.91-9.7,4.36a9.84,9.84,0,0,0-1.48.84c-3.59,2.44-7.93,1.6-9.67-2.77-.44-1.11-1.09-2.17-.63-3.46a5.12,5.12,0,0,1,3.33-3.15c2.2-.79,4.43-1.48,6.6-2.33,1.76-.68,3.47-1.51,5.17-2.32A17.14,17.14,0,0,0,547.69,97.12Z"/><path d="M117.51,128.05c0,1.73.07,3.15.11,4.57q.1,3.41.21,6.81a7.28,7.28,0,0,0,0,.95c.61,3.75,1.22,7.5,1.87,11.24a25.61,25.61,0,0,1-.16,7.14c-.17,1.63-2.09,3.1-3.75,3.29a2.2,2.2,0,0,1-2.27-1,6,6,0,0,1-1.35-4.42,16.38,16.38,0,0,0-.37-5.44,104.55,104.55,0,0,1-1.91-15.82c-.05-2.32-.52-4.63-.68-6.95-.15-2.13-.11-4.28-.22-6.42-.06-1.13-.29-2.24-.35-3.37-.09-1.76-.09-3.53-.16-5.3-.09-2-.21-4-.33-6-.17-2.89-.24-5.8-.55-8.68s-.8-5.77-1.3-8.64a9.19,9.19,0,0,1,2.5-8.21,3.62,3.62,0,0,1,1.53-1,28.83,28.83,0,0,1,7.2-1.53c1.8,0,3.61,0,5.41,0,.89,0,1.77,0,2.65,0a25.16,25.16,0,0,1,9.85,1.41,3.72,3.72,0,0,1,1,.59c1.06.8,2.09,1.63,3.15,2.44s1.95,1.39,2.16,2.74c.07.4.46.75.68,1.13.75,1.32,1.47,2.66,2.22,4,1.65,2.87,1,5.8,0,8.59a51.93,51.93,0,0,1-3.45,7.18c-1.23,2.21-2.68,4.29-4.1,6.38a4.18,4.18,0,0,1-1.4,1.22c-3,1.7-6.08,3.33-9.1,5a13.25,13.25,0,0,0-1.84,1.57,16.06,16.06,0,0,0,1.3,1.3c3.29,2.58,6.61,5.12,9.89,7.72a20.14,20.14,0,0,0,8.51,4.41,9.77,9.77,0,0,1,3.13,1.68c1.37.9,2.62,2,4,2.86a5.64,5.64,0,0,1,2.34,5.49c-.34,2.44-2.2,3.44-3.87,4.55a2.7,2.7,0,0,1-3.81-1.28c-.77-1.8-2.47-2.5-3.87-3.51a20.23,20.23,0,0,0-3.73-1.87,31.67,31.67,0,0,1-8.18-5.1,89.36,89.36,0,0,0-11.35-8.89A12.55,12.55,0,0,0,117.51,128.05Zm-.4-10.22c1.51-.77,2.82-1.35,4.05-2.08,2.56-1.51,5-3.18,7.62-4.6a14.07,14.07,0,0,0,4.81-4.45,28.2,28.2,0,0,0,3.76-7.4c.5-1.51,1-2.87.42-4.36a19.39,19.39,0,0,0-1.42-2.66,7.9,7.9,0,0,0-5.16-3.6,16.52,16.52,0,0,0-6.13-.67,12.32,12.32,0,0,1-3.58.07c-1.82-.32-3.5.24-5.23.46-1.27.16-1.46.54-1.32,1.8.25,2.26.37,4.53.77,6.77.64,3.64-.19,7.31.43,10.94.33,1.93.33,3.91.51,5.86C116.76,115.13,116.93,116.34,117.11,117.83Z"/><path d="M100.85,230.35c-1.94,0-2.72,1.45-3.83,2.31a24.63,24.63,0,0,1-6.47,3.88,3,3,0,0,1-4.18-2.61c-.07-.75,0-1.52-.12-2.27-.25-2.08,1-3.3,2.45-4.4,2.52-1.91,5.06-3.81,7.58-5.71a20.73,20.73,0,0,0,1.66-1.26,14.5,14.5,0,0,0,2.23-2.29c1.62-2.37,3.65-2.92,6.16-1.51s2.68,2.33,2.51,5.22a44.7,44.7,0,0,0,.46,6.41c.09,1,.24,2,.33,3a13.4,13.4,0,0,0,0,1.71c.71,3.23.55,6.54,1,9.78a13.9,13.9,0,0,0,1,2.62,18.67,18.67,0,0,1,1,3c.21,1.17.08,2.4.29,3.57a3.56,3.56,0,0,1-.63,2.87c-1.23,1.69-2.43,3.44-4.73,3.83-.25,0-.52.24-.73.18-1.66-.52-2.49.54-3.48,1.59a14.75,14.75,0,0,1-7.91,4.61,11.8,11.8,0,0,1-6.3-.48c-1.07-.37-2.17-.67-3.24-1a16,16,0,0,1-1.75-.71,7.84,7.84,0,0,0-1.32-.75c-2.38-.57-4.1-2.15-5.89-3.66a4.76,4.76,0,0,0-1.21-.91c-1.63-.63-2.42-2.13-3.61-3.2-1.64-1.48-2.38-3.32-3.36-5.13-.72-1.33-1.64-2.51-1.75-4.14,0-.71-.67-1.37-.86-2.09-.53-2-1-4-1.45-6.06-.21-.92-.35-1.86-.54-2.78-.58-2.85-1.2-5.7-1.76-8.55a23.42,23.42,0,0,1,.66-10.7c.77-2.86,1.49-5.74,2.43-8.54a23.26,23.26,0,0,1,4.31-7.52A27.08,27.08,0,0,1,74,195.16a5.5,5.5,0,0,1,5.05-.88,71,71,0,0,0,9.06,1.94c1.94.26,4.38,1.78,4.42,4a5.09,5.09,0,0,1-.4,2.55A7.65,7.65,0,0,1,88,206.48a4.09,4.09,0,0,1-2.2-.15c-2.19-.62-4.34-1.39-6.53-2a7.24,7.24,0,0,0-2.62-.26,2.6,2.6,0,0,0-1.78.87,19.55,19.55,0,0,0-3.43,8.7c-.09,1-.41,2-.54,3a31,31,0,0,0,.51,11.29c1,3.93,1.65,7.93,2.83,11.79,1.3,4.24,3.5,8,7.41,10.47A41.15,41.15,0,0,0,87,252.64c1.27.56,2.58,1,3.88,1.54,2.59,1,5,.82,7-1.29.52-.55,1-1.13,1.53-1.69a5.81,5.81,0,0,0,1.76-5.36,1.57,1.57,0,0,1,.07-1.11c1.36-1.69.77-3.64.72-5.47-.07-2.47-.38-4.93-.63-7.39A8.93,8.93,0,0,0,100.85,230.35Z"/><path d="M283.57,64.54c1.48-.82,2.75-1.46,3.94-2.22a2,2,0,0,1,2-.21,6.47,6.47,0,0,1,3.38,2.28,3.76,3.76,0,0,0,1.14,1,50.51,50.51,0,0,1,10.1,7.68c1.86,1.87,4,3.59,5.4,5.76,1.77,2.71,4.56,4.58,5.92,7.58a3.64,3.64,0,0,0,1.39,1.23,11.47,11.47,0,0,1,2.67,2.89c1.29,1.68,2.06,3.77,3.9,5a3.68,3.68,0,0,1,.77,1.06c.41.62.8,1.24,1.19,1.86l.43-.07a12.84,12.84,0,0,0,.19-1.73c-.07-3.61-.21-7.22-.27-10.82,0-2.46,0-4.92,0-7.39,0-.25,0-.51,0-.76-.32-4.22-.64-8.44-1-12.66-.2-2.45-.38-4.91-.67-7.35a1.77,1.77,0,0,1,1.05-2c1.05-.57,2-1.51,3.12-1.71a5.2,5.2,0,0,1,4.24.93,15.31,15.31,0,0,1,1.41,1.45c-.16,2.32-.31,4.59-.46,6.86a1.55,1.55,0,0,0,0,.75c1.44,2.7.47,5.6.71,8.4.06.69,0,1.38.12,2.06a151.71,151.71,0,0,1,.74,16c.07,3.66-.21,7.33-.16,11,.06,4-1.47,7.42-3.23,10.79-1,2-2.93,2.94-5,3.62a1.77,1.77,0,0,1-1.4-.24,8,8,0,0,1-2.64-3.15c-1.46-3.16-3.06-6.26-4.72-9.32a19.13,19.13,0,0,0-2.33-3c-2.56-3-5.19-6-7.71-9.11a81.51,81.51,0,0,0-7.37-8.38c-1.06-1-1.93-2.16-3-3.14a17.44,17.44,0,0,0-2.61-1.59c.14,1.61.15,2.73.35,3.82a21.67,21.67,0,0,1,.25,7.37,25.45,25.45,0,0,0,.26,6.77c.23,2.05.06,4.15.11,6.22a11,11,0,0,0,.25,3.36c.73,2,.29,4,0,6a9.2,9.2,0,0,1-.72,2.55,6.66,6.66,0,0,1-1.33,1.78,7.66,7.66,0,0,1-1.28.8,2.71,2.71,0,0,1-4.22-1c-.57-1-1-2-.42-3.21.24-.48-.06-1.23-.11-1.85-.15-2-.77-3.95-.37-6a13.52,13.52,0,0,0-.32-3c-.3-5.88-.58-11.76-.86-17.64a6.19,6.19,0,0,0-.1-.94c-.59-2.85-1-5.76-1.84-8.52-.55-1.77-.77-3.56-1.19-5.32A10.69,10.69,0,0,1,283.57,64.54Z"/><path d="M332.91,201.83a16.19,16.19,0,0,0,.57-2.27c.21-2.33.42-4.67.48-7,.08-2.78,0-5.56,0-8.34-.11-4.81-.27-9.61-.4-14.41,0-1.33,0-2.65,0-4a5.9,5.9,0,0,0-1.53-4c-1.17-1.27-.92-2.82-1-4.3a1.47,1.47,0,0,1,.7-1,30.12,30.12,0,0,1,2.71-1.34c.17-.08.43,0,.55-.14,1.41-1.41,3.1-.59,4.67-.59.41,0,.83.42,1.21.69a9.69,9.69,0,0,1,1,.87c.22.21.56.41.62.66a36.75,36.75,0,0,1,.73,4.1c.14,1.38.09,2.78.11,4.17,0,3.09-.1,6.19.13,9.27.3,4.15.35,8.29.4,12.44a91.49,91.49,0,0,1-.2,9.86,61,61,0,0,1-1.77,11.43,7,7,0,0,1-.8,1.49c-.16.27-.53.5-.54.76-.08,2.36-2.34,3-3.54,4.46a2.29,2.29,0,0,1-1.72.4,4,4,0,0,1-1.76-.68c-3.62-2.38-7-5-9.29-8.79-.44-.76-1.08-1.4-1.6-2.12-1.85-2.56-3.74-5.1-5.51-7.72-1.21-1.78-2.16-3.73-3.39-5.49-2.37-3.36-4.84-6.65-7.32-9.94a10.57,10.57,0,0,0-1.92-1.48c0,1.59,0,2.83.08,4.05.35,3.4.92,6.78,1.14,10.19a30.64,30.64,0,0,1-.17,8.13,9.11,9.11,0,0,1-4.34,6.18,1.82,1.82,0,0,1-2.28-.15c-1.82-1.54-3-3.27-2.57-5.92a27.87,27.87,0,0,0-.75-12.22,11.74,11.74,0,0,1,0-2.25c-.34-4.49-.65-9-1.12-13.45a16.15,16.15,0,0,0-1.15-5,5.81,5.81,0,0,1,1.08-6.26,5.93,5.93,0,0,1,5-1.78,5.08,5.08,0,0,1,3.79,2.21c1.4,1.86,3.08,3.52,4.58,5.32,2.06,2.48,4,5,6.09,7.52.64.79,1.4,1.48,2,2.3s1,1.75,1.52,2.59,1.12,1.36,1.59,2.1c1.59,2.51,3.12,5.06,4.7,7.58.37.59.81,1.12,1.23,1.68a21.4,21.4,0,0,1,1.66,2.3,15.16,15.16,0,0,0,2.85,4,35.11,35.11,0,0,1,2.54,3A8.44,8.44,0,0,0,332.91,201.83Z"/><path d="M387.36,182.24c-1.74-.29-3,.67-4.44,1.15-2,.69-4,1.53-6.09,2.12a11,11,0,0,1-2.6-.13c-1.21,0-1.42-1-1.76-1.72-.57-1.26-1.37-2.58-1.37-3.87a3.84,3.84,0,0,1,1.85-3.31,15.17,15.17,0,0,1,2.6-1.12c2.82-.95,5.62-1.94,8.48-2.74,2.19-.61,4.45-1,6.68-1.44a2.59,2.59,0,0,1,1.12-.12c1.83.5,3.67,1,5.45,1.63a2.32,2.32,0,0,1,1.42,2.81,10.31,10.31,0,0,1-1.36,3.28,9.63,9.63,0,0,0-1.76,4.69c-.18,2.08-.78,4.13-.21,6.2A67.15,67.15,0,0,1,397,200.33a8.88,8.88,0,0,0,1.14,3c.58,1.11,1.35,2.13,2,3.21a1.54,1.54,0,0,1,.24,1.07,6.26,6.26,0,0,1-2.47,3.72,21.65,21.65,0,0,1-2.52,1.26c-1.65.76-3.39-.25-3.9-2.44-.43-1.84-.62-3.73-1-5.59-.2-1.11-.48-2.2-.8-3.61-.75.39-1.34.66-1.89,1a32.71,32.71,0,0,1-4.39,2.56,66.11,66.11,0,0,1-8.49,2.74,13.61,13.61,0,0,1-13.71-4,68.41,68.41,0,0,1-4.7-5.47,17.5,17.5,0,0,1-1.6-3,33,33,0,0,1-3.19-11.64c-.35-3.55.62-7,1.41-10.44.64-2.75,2.2-5.07,3.22-7.64a24,24,0,0,1,4.32-6.87,9.06,9.06,0,0,1,1-1.07c2.72-2.25,5.51-4.43,8.17-6.75a4.08,4.08,0,0,1,2.89-1.1c2.21,0,3.94,1.07,5.65,2.21a2.5,2.5,0,0,1,.8,3.5,7.87,7.87,0,0,1-5.5,4.52,9.44,9.44,0,0,0-2.88,1.76c-1.44,1-2.83,2.12-4.22,3.21a5.11,5.11,0,0,0-.94.92,25,25,0,0,0-4.61,8.66c-.4,1.52-1.06,3-1.36,4.53a17.83,17.83,0,0,0,.81,8.73,21.68,21.68,0,0,0,5,8.16c2.1,2.38,5,3.11,7.69,1.7a9.52,9.52,0,0,1,2-.54,22.71,22.71,0,0,0,6.65-3.07c1-.67,1-1.82,1.23-2.88a9.64,9.64,0,0,1,.68-2.53,3.78,3.78,0,0,1,1.52-1.56C387.49,185.4,387.68,185.13,387.36,182.24Z"/><path d="M135.07,199.83c2.21.61,4.27,1.17,6.33,1.75a17,17,0,0,1,6,3.51c2.11,1.72,4.27,3.39,6.24,5.27a23.73,23.73,0,0,1,3.9,4.63,62.61,62.61,0,0,1,4,7.74,19.13,19.13,0,0,1,1.52,6.79c.09,1.86-1,3.24-1.54,4.82a27.55,27.55,0,0,1-4.82,7.91,37.22,37.22,0,0,1-7.36,6.2,17.55,17.55,0,0,1-6.58,2.79,6.66,6.66,0,0,1-5.29-.92c-3.76-2.62-7.25-5.53-9.6-9.57L124,234a1.27,1.27,0,0,1-.16-.34c-.74-3.33-1.56-6.65-2.17-10a40.33,40.33,0,0,1-.29-5.11,28.86,28.86,0,0,1,1.47-9.13,50.83,50.83,0,0,1,4.94-11.19c.69-1.23,1.89-1.63,3-2.24a1.74,1.74,0,0,1,1.25.11A4.34,4.34,0,0,1,135.07,199.83Zm-3.94,9.32a29.3,29.3,0,0,0-1.41,10.71,29.94,29.94,0,0,0,4.68,14.82,16.79,16.79,0,0,0,4.82,5,6.8,6.8,0,0,0,3.64,1.34,7.05,7.05,0,0,0,5.59-2.79c1.3-1.71,2.66-3.39,3.83-5.19a7.07,7.07,0,0,0,.86-6.53,24.68,24.68,0,0,0-2.52-4.88,16.87,16.87,0,0,0-3.86-4.63,50.72,50.72,0,0,1-4.68-4.14c-1.58-1.49-3.71-1.85-5.52-2.86A.78.78,0,0,0,136,210C134.33,210.51,132.79,210,131.13,209.16Z"/><path d="M267.27,111.7a8.09,8.09,0,0,1-3.62,4.3c-1.94,1.27-3.8,1-4.93-1-1-1.81-1.87-3.73-2.91-5.53-1.22-2.12-2.57-4.18-3.79-6.14-3.22,0-6,1-8.74,1.83-3.8,1.17-7.57,2.44-11.65,2.62a21,21,0,0,1,.64,2.86,15.19,15.19,0,0,1-.11,3c-.34,3-.64,6-1.13,9a16.71,16.71,0,0,1-1.32,3.72,3,3,0,0,1-1,1.06,10.08,10.08,0,0,1-1.34.71c-.91.48-1.74,1.4-2.85.28s-2.07-2.17-1.68-4a30.24,30.24,0,0,0,.6-4.86c.21-4.41.25-8.83.52-13.24.18-3,.61-5.89,1-8.83.41-3.51.8-7,1.3-10.53.43-3,1-6,1.52-8.95a8.77,8.77,0,0,1,1.55-4c1.16-1.52,2.78-1.58,4.39-1.8a1.54,1.54,0,0,1,1,.39c3,2.53,5.94,5.09,8.91,7.64a9.82,9.82,0,0,0,1.29,1.11A12.72,12.72,0,0,1,249,86a21,21,0,0,0,2,2.53,3.26,3.26,0,0,0,.93.61c.27.15.68.18.84.39.95,1.37,1.84,2.77,2.75,4.16.24.37.49.72.75,1.08.43.6.84,1.24,1.32,1.8.9,1,1.85,2.06,2.79,3.08a9.8,9.8,0,0,1,2.54,4.18,2.65,2.65,0,0,0,.7,1.33C265.69,106.9,266.26,109.43,267.27,111.7ZM235.33,85.63c-.21,1-.33,1.45-.41,1.92-.49,2.92-.89,5.86-1.47,8.77-.36,1.83-.09,2.23,1.7,1.9a34,34,0,0,0,7.79-2.91c1.49-.68,1.54-1.37.37-2.6-.74-.78-1.52-1.52-2.33-2.22C239.24,89,237.47,87.46,235.33,85.63Z"/><path d="M206.71,227.21c-1.89,3-4.67,5.2-7.42,7.29a16.79,16.79,0,0,1-5.42,2.54,30.93,30.93,0,0,0-5.33,2.32c-1.59.81-3.48.5-4.15-1.13-.76-1.84-1.62-3.77-.52-5.84a6.5,6.5,0,0,0,.28-1.48,2.52,2.52,0,0,1,4-1.62,2.2,2.2,0,0,0,2.15.16,21.06,21.06,0,0,0,7.66-4.76,37.84,37.84,0,0,0,3.86-4.42c1.11-1.48,1-2-.77-2.68a14.67,14.67,0,0,0-4-1,65.51,65.51,0,0,1-8.06-1,21.12,21.12,0,0,0-5.28-.33c-2.28.09-4.27-1.08-6.47-1.28-.62-.06-1.24-.16-1.86-.24a5.11,5.11,0,0,1-4.55-3.2,17.52,17.52,0,0,1-1.3-9.25c.21-1.43,0-2.93.32-4.33.45-2.2,1.14-4.36,1.75-6.53a2.35,2.35,0,0,1,.45-.83c1.13-1.36,2.23-2.75,3.43-4a5.51,5.51,0,0,1,3.32-1.68c1.23-.19,2.4-.87,3.62-.94,3.62-.21,7.2,0,10.48,1.85,1.14.64,2.58.88,3,2.35a7.23,7.23,0,0,1,.45,2.36,18.39,18.39,0,0,1-.59,2.57c-.39,2-2.14,2.52-3.66,3.21a2.12,2.12,0,0,1-1.45-.23c-1.1-.48-2.13-1.11-3.24-1.58-2.74-1.15-5.53-1.41-8.2.15a3.68,3.68,0,0,0-1.68,1.9c-.56,2.19-1.17,4.42-.63,6.74.43,1.86,1.14,2.58,3.05,2.68,2.77.13,5.54.17,8.31.28.82,0,1.63.24,2.44.33,3.08.34,6.16.64,9.24,1a15.08,15.08,0,0,1,7.67,3.38,17.92,17.92,0,0,1,3.84,3.86c.9,1.31,1,1.71.06,3a7.56,7.56,0,0,0-.87,2.8,23.36,23.36,0,0,1-2.1,5.2A16.42,16.42,0,0,1,206.71,227.21Z"/><path d="M202,79.91a5.31,5.31,0,0,0,1.49.49c1.53.06,2.1,1.17,2.77,2.25a3.31,3.31,0,0,1,.11,3.2,13.29,13.29,0,0,1-2.49,4.67,32.79,32.79,0,0,0-3,4.4c-2.28,3.5-4.59,7-6.79,10.54a4.13,4.13,0,0,0-.55,2.51,25.76,25.76,0,0,1-.09,5.28c-.27,3.65-.3,7.33-.3,11,0,2.9.13,5.81.33,8.7a11,11,0,0,1-1.36,5.42,5.52,5.52,0,0,1-3.34,3.12A3,3,0,0,1,185,140a7.43,7.43,0,0,1-.68-3.49c0-3,0-5.92,0-8.88,0-4.29.11-8.59.17-12.88,0-.88.12-1.77,0-2.65a17.09,17.09,0,0,0-.43-2.2c-.4-.1-.54-.2-.63-.16-2.91,1.22-4.67-.66-6.42-2.42a26.66,26.66,0,0,0-6.19-4.89,33.68,33.68,0,0,1-3.86-2.73c-2.44-1.8-4.83-3.67-7.29-5.43-1.91-1.36-2.4-2.82-1.41-4.86a6.31,6.31,0,0,1,.94-1.64c.5-.53,1.16-1.2,1.79-1.24a6,6,0,0,1,4.63,1.11c2.34,1.93,4.94,3.54,7.43,5.29,2.65,1.86,5.28,3.73,7.94,5.56q2,1.39,4.14,2.66c1,.6,1.29.47,2-.6,1.69-2.68,3.36-5.37,5.08-8,.75-1.17,1.58-2.3,2.4-3.42a14.54,14.54,0,0,0,2.74-5.55,3.59,3.59,0,0,1,2-2.36C200.15,80.71,201,80.36,202,79.91Z"/><path d="M250,215.52a14.93,14.93,0,0,1-1.3,1.68,2.07,2.07,0,0,1-1.27.64c-3.51,0-6.71,1.23-9.84,2.6a42.39,42.39,0,0,1-11,2.64,17.48,17.48,0,0,1-3.92-.2c-1.82-.15-2.6-1.4-2.94-3s-.59-3.34-1-5A63.47,63.47,0,0,1,217.11,204c-.08-1.44-.51-2.86-.65-4.29-.39-4-.68-8.07-1.06-12.1-.17-1.83-.37-3.65-.67-5.46a18.32,18.32,0,0,1,.53-6.21c.24-1.35,2.6-2.85,4-2.75a2.33,2.33,0,0,1,.38,0c1.05.26,3.2,3,3,4-.59,2.81.2,5.55.35,8.31.25,4.48.72,9,1.3,13.41.5,3.89,1.22,7.75,1.94,11.61.32,1.69.69,1.7,2.32,1.81,3,.21,5.52-1.11,8.15-2.13,3-1.19,6.06-2.46,9.12-3.59,1.93-.71,4.28.76,5.3,2.45,1.33,2.21,1.05,3.89-.68,5.57A3.74,3.74,0,0,0,250,215.52Z"/><path d="M259.37,166A5.2,5.2,0,0,1,264.1,164c.49.12,1,.28,1.47.37a3.12,3.12,0,0,1,2.38,2.2,17.7,17.7,0,0,1,.81,4.42q.57,4.11,1.21,8.21.48,3.08,1.06,6.15c.32,1.68.68,3.35,1.06,5,.45,2,1,3.92,1.41,5.89.81,3.51,2.22,6.86,2.56,10.5a4.56,4.56,0,0,1-.72,3.4,9.32,9.32,0,0,0-1,2,6,6,0,0,1-3.45,2.39,3.63,3.63,0,0,1-3.13-2.1,4.55,4.55,0,0,1-.48-1.44c-.28-4-1.85-7.74-2.74-11.62-.71-3.13-1.3-6.3-2-9.44-.26-1.24-.55-2.47-.8-3.72-.52-2.54-1-5.08-1.53-7.62a9.52,9.52,0,0,0-.56-1.8,15.26,15.26,0,0,1-1.13-8.7A11.88,11.88,0,0,1,259.37,166Z"/></svg>